<?xml version="1.0" standalone="no"?><!DOCTYPE svg PUBLIC "-//W3C//DTD SVG 1.1//EN" "http://www.w3.org/Graphics/SVG/1.1/DTD/svg11.dtd"><svg t="1680931746355" class="icon" viewBox="0 0 1024 1024" version="1.1" xmlns="http://www.w3.org/2000/svg" p-id="10344" xmlns:xlink="http://www.w3.org/1999/xlink" width="200" height="200"><path d="M853.1968 247.6032c-4.096-1.4336-8.3968-2.2528-13.1072-2.2528L183.9104 245.3504c-4.5056 0-9.0112 0.8192-13.1072 2.2528L512 588.8 853.1968 247.6032z" p-id="10345"></path><path d="M520.6016 614.8096c-2.2528 2.2528-5.5296 3.6864-8.6016 3.6864s-6.3488-1.2288-8.6016-3.6864L151.3472 262.9632c-4.096 6.144-6.3488 13.5168-6.3488 21.2992l0 455.68c0 21.504 17.408 38.912 38.912 38.912l656.384 0c21.2992 0 38.912-17.408 38.912-38.912L879.2064 284.2624c0-7.7824-2.4576-15.1552-6.3488-21.2992L520.6016 614.8096z" p-id="10346"></path></svg>