<?xml version="1.0" standalone="no"?><!DOCTYPE svg PUBLIC "-//W3C//DTD SVG 1.1//EN" "http://www.w3.org/Graphics/SVG/1.1/DTD/svg11.dtd"><svg t="1680773242016" class="icon" viewBox="0 0 2767 1024" version="1.1" xmlns="http://www.w3.org/2000/svg" p-id="1759" xmlns:xlink="http://www.w3.org/1999/xlink" width="540.4296875" height="200"><path d="M2336.753702 861.865986l0.482023-186.941408 68.799481 0.973315A482.847773 482.847773 0 0 1 2530.619553 421.464026l-190.491691-3.401968-0.926967-73.31381-208.799288 0.926967v72.841057h-41.379801L2276.139339 0q-165.991957 83.510445-278.090061 100.511018l-285.783886 579.270866 417.607844 1.455338-1.928091 254.915889a472.382317 472.382317 0 0 1 208.808557-74.287125z m-1074.354601-582.135194a149.97397 149.97397 0 0 0-113.089958 49.277559 174.640558 174.640558 0 0 0 0.241011 237.924586 154.580995 154.580995 0 0 0 226.124298 0.241012 176.253481 176.253481 0 0 0 0-238.406609 150.075936 150.075936 0 0 0-113.238273-49.082896z m292.513665-82.500051q88.061853 93.225058 88.061853 250.549875 0 160.216954-104.395009 270.210842a485.508167 485.508167 0 0 1-240.316161 142.99391q-135.921152 33.02783-85.883481 2.187641t-33.194683-43.947499q-136.152894-18.446641-216.743394-115.314678T881.879201 447.724998a417.135091 417.135091 0 0 1 22.66434-140.073964 358.152189 358.152189 0 0 1 78.60679-127.717495q101.2804-107.064673 259.077971-135.948961t98.629275-4.375284q-59.177565 24.527543 35.604797 42.482892 90.453427 21.8208 178.487471 115.045858zM624.441962 861.958683l0.482023-186.941409 68.799481 0.973315a482.847773 482.847773 0 0 1 124.612156-254.433866l-190.519501-3.401968-0.926967-73.31381-208.799287 0.926967v72.841057h-41.379801L563.864677 0q-165.991957 83.510445-278.090061 100.511018L0 679.781884l417.607844 1.455338-1.928091 254.915889a472.382317 472.382317 0 0 1 208.799288-74.287125z" fill="#007AFF" p-id="1760"></path></svg>